HIERARCHY
ROOT hip
{
  OFFSET 0 0 0
  CHANNELS 6 Xposition Yposition Zposition Zrotation Yrotation Xrotation
  JOINT abdomen
  {
    OFFSET 0 20.6881 -0.73152
    CHANNELS 3 Zrotation Xrotation Yrotation
    JOINT chest
    {
      OFFSET 0 11.7043 -0.48768
      CHANNELS 3 Zrotation Xrotation Yrotation
      JOINT neck
      {
        OFFSET 0 22.1894 -2.19456
        CHANNELS 3 Zrotation Xrotation Yrotation
        JOINT head
        {
          OFFSET -0.24384 7.07133 1.2192
          CHANNELS 3 Zrotation Xrotation Yrotation
          JOINT leftEye
          {
            OFFSET 4.14528 8.04674 8.04672
            CHANNELS 3 Zrotation Xrotation Yrotation
            End Site
            {
              OFFSET 1 0 0
            }
          }
          JOINT rightEye
          {
            OFFSET -3.6576 8.04674 8.04672
            CHANNELS 3 Zrotation Xrotation Yrotation
            End Site
            {
              OFFSET 1 0 0
            }
          }
        }
      }
      JOINT rCollar
      {
        OFFSET -2.68224 19.2634 -4.8768
        CHANNELS 3 Zrotation Xrotation Yrotation
        JOINT rShldr
        {
          OFFSET -8.77824 -1.95073 1.46304
          CHANNELS 3 Zrotation Xrotation Yrotation
          JOINT rForeArm
          {
            OFFSET -28.1742 -1.7115 0.48768
            CHANNELS 3 Zrotation Xrotation Yrotation
            JOINT rHand
            {
              OFFSET -22.5879 0.773209 7.07136
              CHANNELS 3 Zrotation Xrotation Yrotation
              JOINT rThumb1
              {
                OFFSET -1.2192 -0.487915 3.41376
                CHANNELS 3 Zrotation Xrotation Yrotation
                JOINT rThumb2
                {
                  OFFSET -3.37035 -0.52449 3.41376
                  CHANNELS 3 Zrotation Xrotation Yrotation
                  End Site
                  {
                    OFFSET -1.78271 -1.18214 1.43049
                  }
                }
              }
              JOINT rIndex1
              {
                OFFSET -7.75947 0.938293 5.60832
                CHANNELS 3 Zrotation Xrotation Yrotation
                JOINT rIndex2
                {
                  OFFSET -2.54057 -0.884171 1.56538
                  CHANNELS 3 Zrotation Xrotation Yrotation
                  End Site
                  {
                    OFFSET -1.62519 -0.234802 1.16502
                  }
                }
              }
              JOINT rMid1
              {
                OFFSET -8.24714 1.18213 3.41376
                CHANNELS 3 Zrotation Xrotation Yrotation
                JOINT rMid2
                {
                  OFFSET -3.10165 -0.590103 1.0647
                  CHANNELS 3 Zrotation Xrotation Yrotation
                  End Site
                  {
                    OFFSET -2.48547 -0.328903 0.83742
                  }
                }
              }
              JOINT rRing1
              {
                OFFSET -8.82822 0.546677 1.51678
                CHANNELS 3 Zrotation Xrotation Yrotation
                JOINT rRing2
                {
                  OFFSET -2.60934 -0.819778 -0.0198488
                  CHANNELS 3 Zrotation Xrotation Yrotation
                  End Site
                  {
                    OFFSET -2.33842 -0.294052 0.168128
                  }
                }
              }
              JOINT rPinky1
              {
                OFFSET -8.27202 -0.0477905 -0.4584
                CHANNELS 3 Zrotation Xrotation Yrotation
                JOINT rPinky2
                {
                  OFFSET -1.82734 -0.647385 -0.700984
                  CHANNELS 3 Zrotation Xrotation Yrotation
                  End Site
                  {
                    OFFSET -1.69225 -0.51767 -0.607171
                  }
                }
              }
            }
          }
        }
      }
      JOINT lCollar
      {
        OFFSET 2.68224 19.2634 -4.8768
        CHANNELS 3 Zrotation Xrotation Yrotation
        JOINT lShldr
        {
          OFFSET 8.77824 -1.95073 1.46304
          CHANNELS 3 Zrotation Xrotation Yrotation
          JOINT lForeArm
          {
            OFFSET 28.1742 -1.7115 0.48768
            CHANNELS 3 Zrotation Xrotation Yrotation
            JOINT lHand
            {
              OFFSET 22.5879 0.773209 7.07136
              CHANNELS 3 Zrotation Xrotation Yrotation
              JOINT lThumb1
              {
                OFFSET 1.2192 -0.487915 3.41376
                CHANNELS 3 Zrotation Xrotation Yrotation
                JOINT lThumb2
                {
                  OFFSET 3.37035 -0.52449 3.41376
                  CHANNELS 3 Zrotation Xrotation Yrotation
                  End Site
                  {
                    OFFSET 1.78271 -1.18214 1.43049
                  }
                }
              }
              JOINT lIndex1
              {
                OFFSET 7.75947 0.938293 5.60832
                CHANNELS 3 Zrotation Xrotation Yrotation
                JOINT lIndex2
                {
                  OFFSET 2.54057 -0.884171 1.56538
                  CHANNELS 3 Zrotation Xrotation Yrotation
                  End Site
                  {
                    OFFSET 1.62519 -0.234802 1.16502
                  }
                }
              }
              JOINT lMid1
              {
                OFFSET 8.24714 1.18213 3.41376
                CHANNELS 3 Zrotation Xrotation Yrotation
                JOINT lMid2
                {
                  OFFSET 3.10165 -0.590103 1.0647
                  CHANNELS 3 Zrotation Xrotation Yrotation
                  End Site
                  {
                    OFFSET 2.48547 -0.328903 0.83742
                  }
                }
              }
              JOINT lRing1
              {
                OFFSET 8.82822 0.546677 1.51678
                CHANNELS 3 Zrotation Xrotation Yrotation
                JOINT lRing2
                {
                  OFFSET 2.60934 -0.819778 -0.0198488
                  CHANNELS 3 Zrotation Xrotation Yrotation
                  End Site
                  {
                    OFFSET 2.33842 -0.294052 0.168128
                  }
                }
              }
              JOINT lPinky1
              {
                OFFSET 8.27202 -0.0477905 -0.4584
                CHANNELS 3 Zrotation Xrotation Yrotation
                JOINT lPinky2
                {
                  OFFSET 1.82734 -0.647385 -0.700984
                  CHANNELS 3 Zrotation Xrotation Yrotation
                  End Site
                  {
                    OFFSET 1.69225 -0.51767 -0.607171
                  }
                }
              }
            }
          }
        }
      }
    }
  }
  JOINT rButtock
  {
    OFFSET -8.77824 4.35084 1.2192
    CHANNELS 3 Zrotation Xrotation Yrotation
    JOINT rThigh
    {
      OFFSET 0 -1.70687 -2.19456
      CHANNELS 3 Zrotation Xrotation Yrotation
      JOINT rShin
      {
        OFFSET 0 -36.8199 0.73152
        CHANNELS 3 Zrotation Xrotation Yrotation
        JOINT rFoot
        {
          OFFSET 0.73152 -45.1104 -5.12064
          CHANNELS 3 Zrotation Xrotation Yrotation
          End Site
          {
            OFFSET -1.1221 -3.69964 12.103
          }
        }
      }
    }
  }
  JOINT lButtock
  {
    OFFSET 8.77824 4.35084 1.2192
    CHANNELS 3 Zrotation Xrotation Yrotation
    JOINT lThigh
    {
      OFFSET 0 -1.70687 -2.19456
      CHANNELS 3 Zrotation Xrotation Yrotation
      JOINT lShin
      {
        OFFSET 0 -36.8199 0.73152
        CHANNELS 3 Zrotation Xrotation Yrotation
        JOINT lFoot
        {
          OFFSET -0.73152 -45.1104 -5.12064
          CHANNELS 3 Zrotation Xrotation Yrotation
          End Site
          {
            OFFSET 1.1221 -3.69964 12.103
          }
        }
      }
    }
  }
}
MOTION
Frames:	5
Frame Time:	0.03333
0.0 0.0 0.0 0.0 0.0 0.0 0.0 0.0 0.0 0.0 0.0 0.0 0.0 0.0 0.0 0.0 0.0 0.0 0.0 0.0 0.0 0.0 0.0 0.0 0.0 0.0 0.0 0.0 0.0 0.0 0.0 0.0 0.0 0.0 0.0 0.0 0.0 0.0 0.0 0.0 0.0 0.0 0.0 0.0 0.0 0.0 0.0 0.0 0.0 0.0 0.0 0.0 0.0 0.0 0.0 0.0 0.0 0.0 0.0 0.0 0.0 0.0 0.0 0.0 0.0 0.0 0.0 0.0 0.0 0.0 0.0 0.0 0.0 0.0 0.0 0.0 0.0 0.0 0.0 0.0 0.0 0.0 0.0 0.0 0.0 0.0 0.0 0.0 0.0 0.0 0.0 0.0 0.0 0.0 0.0 0.0 0.0 0.0 0.0 0.0 0.0 0.0 0.0 0.0 0.0 0.0 0.0 0.0 0.0 0.0 0.0 0.0 0.0 0.0 0.0 0.0 0.0 0.0 0.0 0.0 0.0 0.0 0.0 0.0 0.0 0.0 0.0 0.0 0.0 0.0 0.0 0.0
0.8635999999999999 50.605199999999996 0.5647 20.148971 -53.067415 -7.516555 -11.80886 20.827323 -164.694098 5.977419 6.342047 -177.794674 9.492475 19.137824 67.473806 -25.97124 -0.556875 -27.414102 -0.002892 0.0 -0.001067 0.001372 -0.0 -0.000887 3.232428 -26.32009 -5.162737 61.76748 42.52207 -21.085417 -1.959592 -0.261912 102.853547 -6.896093 28.805198 1.695324 -141.268819 18.562195 82.692869 -7.226328 -34.154034 20.746362 -167.173565 -44.484301 121.984399 -1.899877 27.171075 -1.809728 -167.339005 -27.893245 145.264165 -130.588151 50.785288 119.484116 0.006252 1.733019 0.544455 -153.026051 23.713365 168.293381 -2.025634 -5.027288 -1.883928 -158.956898 54.091046 -150.021962 -2.148665 -15.413218 3.140853 -53.366623 -36.201889 13.708436 -168.442994 -30.66732 -26.567674 172.821926 9.948596 -141.276505 36.534542 28.226828 -14.670991 -12.41327 -11.844909 -11.200938 136.106844 8.377432 -113.339001 -178.813215 -43.852726 -113.770567 153.14494 14.046847 -138.739357 -1.18688 5.98676 -1.250892 143.524686 -21.984421 171.80255 154.045536 4.945018 -179.825395 -69.721924 87.955444 29.677247 146.312449 5.277415 140.960575 -0.006433 -0.00053 -0.003544 -84.562063 -56.910355 178.123052 -95.740433 -17.304802 160.19101 -179.437095 -50.91195 88.849574 -179.978097 75.751053 -0.016408 -154.353888 27.487644 -32.43329 -69.110871 69.673433 141.030453 -172.100825 -6.302099 46.547879
1.3667 49.7515 0.8855999999999999 18.61159 -52.610024 -6.418099 -9.528517 22.398364 -101.107132 10.649312 -4.248462 118.837016 -10.652564 25.039274 -79.8645 31.464793 6.000114 121.803751 -0.00139 -0.0 1.3e-05 -0.002539 0.0 -0.00089 -9.740005 35.027914 11.295268 -96.98616 32.639121 143.897349 6.490192 32.795181 -137.289995 163.386876 -27.435369 142.161292 1.044253 -1.034349 -0.15154 60.496578 -78.193506 -5.395828 -128.087284 18.443958 107.682092 -8.441986 26.416207 -0.783833 -138.891255 38.348325 127.251023 -171.194693 -28.854648 143.868436 -33.647521 -66.810999 -48.388387 -151.141649 -8.722224 176.287965 -126.107798 -27.502657 -123.84449 -155.146176 38.421698 -146.532073 100.146535 -86.61274 122.387965 63.995127 -40.975282 79.990809 174.40103 16.226851 73.899286 8.396392 2.109491 2.25189 4.087049 3.981241 -0.766983 -151.48523 -80.976823 -75.305002 23.947158 28.127549 -17.227134 170.374072 -21.506791 -110.262209 -3.185274 -9.689056 1.569941 30.536826 52.950527 -25.442182 144.850014 11.287225 -177.285705 19.080067 -69.611839 39.332248 44.221934 -47.832517 43.010555 -9.566753 19.064664 -4.237381 -0.000388 0.000456 2.1e-05 -86.405182 -53.855778 14.721078 105.241326 6.148066 107.759259 69.013781 6.673884 164.462731 -179.993405 75.750949 -0.005959 -153.358034 24.875956 -115.211315 -80.038502 -19.865238 64.450631 105.402823 30.373899 -10.273629
1.7714 49.1549 1.1247 17.705421 -52.205655 -5.902098 -14.886195 23.278906 78.647378 -11.054847 -0.931745 -59.342124 6.296965 32.855707 157.666976 -10.482164 36.980949 -113.753178 -0.003602 0.0 -0.000596 0.001901 0.0 0.000404 -150.357283 -78.760709 -174.41613 129.503017 47.926113 -128.568067 -10.189038 0.645395 102.868657 -3.887964 21.095401 1.290366 98.544669 -51.215275 44.420396 -118.734542 32.442196 78.136362 -162.81084 -37.750985 122.637106 -175.004361 -42.917361 115.098718 -30.785627 48.510219 24.96347 1.105925 6.578484 1.06106 -145.121409 0.243505 -179.204517 11.181239 13.568792 -7.399277 -154.44786 46.235731 -149.084343 -4.948349 -14.680976 -7.321175 -4.224724 -52.723644 10.410842 140.495875 22.739854 148.632704 46.811399 64.281517 95.503358 -175.637736 -26.401751 -143.402294 46.713488 32.678737 -20.921951 13.143635 1.676756 -27.638866 147.184593 -9.527268 -119.53214 -39.503309 -49.753948 3.133366 176.930538 -52.674315 -143.628172 3.191977 16.64952 -3.456628 -0.004175 0.742172 -0.23542 -10.25537 0.234361 0.039534 134.209774 -15.021382 131.652917 145.88422 8.424544 141.049094 -179.999825 75.748316 0.001227 145.041142 -10.138385 -93.716765 -98.784458 -5.572656 177.028199 -169.055099 -25.158472 101.401316 -179.986842 75.74981 -0.008331 -153.220493 24.029348 -96.328698 -87.237566 -5.158719 -2.092704 -159.443181 74.327616 -106.117418
2.1096 48.5348 1.2567 17.644547 -52.083229 -5.852416 -10.695646 24.086342 -56.417571 7.049985 -11.370123 75.57434 9.440559 19.479795 70.205275 -26.111287 -0.171519 -29.18286 0.000954 0.0 0.000939 0.000954 0.0 0.000939 -141.38056 42.140821 145.69835 75.487348 -44.357265 94.528065 -11.827656 -39.707618 92.252653 -4.346755 22.16603 1.294284 -165.608124 -3.280986 89.680983 -163.584901 -5.109752 83.59624 23.055605 -40.738693 -5.718535 0.270951 21.047194 3.421879 -115.151926 55.089678 105.447519 -2.48884 15.871431 3.179819 0.002669 2.220599 0.699756 8.159564 20.387215 2.883408 -153.703216 43.284245 -148.616336 -8.433591 -20.82293 -10.446113 -4.196029 -42.936878 8.282537 100.033248 -36.070841 148.305465 -18.854092 -22.845868 135.861738 172.444162 11.008468 -141.096185 -2.429019 -2.411739 0.323535 -51.406841 -75.973758 12.371016 136.43314 7.91603 -113.553159 161.836912 -11.100651 -118.679707 170.954812 -38.617718 -145.28399 -1.4024 4.868873 -1.049434 0.018324 -1.574742 0.495045 155.429512 -3.262536 -172.249598 156.438028 53.949174 150.144629 7.753843 -19.55983 9.617635 0.000634 0.000123 0.00031 -88.460579 -53.138124 -5.370534 106.450452 27.302864 133.046464 -149.093989 40.993457 -124.335381 0.001211 -0.001636 0.001245 32.954211 -44.456422 54.30568 84.080451 57.314514 -17.44056 90.260026 -62.983147 4.748495
